<?xml version="1.0" encoding="UTF-8"?><svg id="Layer_1" xmlns="http://www.w3.org/2000/svg" xmlns:xlink="http://www.w3.org/1999/xlink" viewBox="0 0 420.14 508.48"><defs><style>.cls-1{filter:url(#drop-shadow-1);}.cls-2{filter:url(#drop-shadow-2);}.cls-3{fill:url(#linear-gradient-2);}.cls-4{fill:#884d9e;}.cls-5{fill:#231f20;}.cls-6{fill:url(#linear-gradient);}.cls-7{fill:#6c6cb2;}.cls-8{fill:#a16eaf;}.cls-9{fill:#27aae1;}.cls-10{fill:#3881c3;}.cls-11{fill:#5650a2;}</style><linearGradient id="linear-gradient" x1="375.36" y1="242.03" x2="339.39" y2="322.22" gradientUnits="userSpaceOnUse"><stop offset="0" stop-color="#3d58a7"/><stop offset="1" stop-color="#a5509f"/></linearGradient><filter id="drop-shadow-1" x="92.84" y="252.27" width="349.2" height="206.4" filterUnits="userSpaceOnUse"><feOffset dx="12" dy="7"/><feGaussianBlur result="blur" stdDeviation="9"/><feFlood flood-color="#231f20" flood-opacity=".65"/><feComposite in2="blur" operator="in"/><feComposite in="SourceGraphic"/></filter><linearGradient id="linear-gradient-2" x1="391.62" y1="267.95" x2="294.37" y2="389.83" xlink:href="#linear-gradient"/><filter id="drop-shadow-2" x="-15.16" y="425.55" width="474.48" height="117.12" filterUnits="userSpaceOnUse"><feOffset dx="12" dy="7"/><feGaussianBlur result="blur-2" stdDeviation="9"/><feFlood flood-color="#231f20" flood-opacity=".65"/><feComposite in2="blur-2" operator="in"/><feComposite in="SourceGraphic"/></filter></defs><polygon class="cls-9" points="107.46 423.88 216.14 271.63 257.06 271.63 257.55 272.37 107.95 424.62 107.46 423.88"/><polygon class="cls-6" points="252.72 423.88 361.4 271.63 402.32 271.63 402.81 272.37 253.21 424.62 252.72 423.88"/><polygon class="cls-7" points="162.9 423.88 257.03 292.5 273.2 312.06 273.45 313.63 163.39 424.62 162.9 423.88"/><polygon class="cls-8" points="207.78 423.88 281.86 324.52 296.6 342.39 297.04 344.15 236.82 423.88 208.27 424.62 207.78 423.88"/><g class="cls-1"><polygon class="cls-10" points="107.95 424.62 216.63 272.37 257.55 272.37 147.55 424.62 107.95 424.62"/><polygon class="cls-3" points="253.21 424.62 361.89 272.37 402.81 272.37 292.81 424.62 253.21 424.62"/><polygon class="cls-11" points="163.39 424.62 257.28 293.82 273.45 313.63 192.43 424.62 163.39 424.62"/><polygon class="cls-4" points="208.27 424.62 282.03 325.67 297.04 344.15 237.31 424.62 208.27 424.62"/></g><g class="cls-2"><polygon class="cls-5" points="138.24 445.61 138.24 508.34 126.61 508.34 126.61 471.16 105.98 491.15 85.13 471.16 85.13 508.34 73.5 508.34 73.5 445.61 105.96 475.95 138.24 445.61"/><path class="cls-5" d="M171.12,492.14v16.19h-11.63v-61.72h23.66c9.08,0,16.81,5.63,19.27,14.62,3.5,12.81-2.34,26.11-15.56,30.07-3.39,1.02-10.43.83-15.73.83ZM171.12,481.77h7.97c2.23,0,4.39-.85,5.69-1.4,11.04-4.69,8.71-23.38-4.17-23.38h-9.48v24.78Z"/><path class="cls-5" d="M0,508.48c9.19-18.84,30.67-62.88,30.67-62.88l29.66,62.88h-12.15l-4.59-10.28-27.03.06-4.55,10.22H0ZM39.15,487.85l-8.98-20.99-9.23,20.99h18.21Z"/><polygon class="cls-5" points="350.16 446.63 350.16 457.5 324.87 457.5 324.87 475.71 344.46 475.71 344.46 486.59 324.87 486.59 324.87 508.34 313.24 508.34 313.24 446.63 350.16 446.63"/><path class="cls-5" d="M385.99,487.65c-6.71-12.21-24.32-40.9-24.32-40.9h14.42l16.1,30.15,15.68-30.15h12.27l-22.77,41.15v20.43h-11.38v-20.68Z"/><polygon class="cls-5" points="233.63 446.63 233.63 496.96 258.43 496.96 258.43 508.34 221.34 508.34 221.34 446.63 233.63 446.63"/><rect class="cls-5" x="278.86" y="446.63" width="11.38" height="61.71"/></g></svg>